Coordinates
version=1
nRows=32
nColumns=12
inDegrees=yes

Units are S.I. units (second, meters, Newtons, ...)
Angles are in degrees

endheader
time	SC_y	SC_z	SC_x	AC_y	AC_z	AC_x	GH_y	GH_z	GH_yy	EL_x	PS_y
       0.0               -14.1          18.19          76.32          64.77         -2.553          4.542          121.4          83.85          162.4          125.3          151.6
   0.03864              -14.11          18.19          76.31          64.76         -2.551          4.538          121.4          83.83          162.4          125.3          151.6
   0.07728              -14.11          18.19           76.3          64.76          -2.55          4.534          121.4          83.82          162.3          125.3          151.5
    0.1159              -14.12          18.19          76.29          64.75         -2.548           4.53          121.4           83.8          162.3          125.3          151.5
    0.1546              -14.13          18.19          76.27          64.75         -2.546          4.526          121.4          83.79          162.2          125.2          151.5
    0.1932              -14.13          18.19          76.26          64.74         -2.544          4.522          121.4          83.77          162.1          125.2          151.5
    0.2318              -14.14          18.19          76.25          64.74         -2.541          4.517          121.4          83.75          162.1          125.2          151.5
    0.2705              -14.15           18.2          76.23          64.73         -2.539          4.512          121.4          83.73          162.0          125.2          151.4
    0.3091              -14.15           18.2          76.21          64.72         -2.537          4.506          121.4          83.71          161.9          125.2          151.4
    0.3478              -14.16           18.2           76.2          64.72         -2.534            4.5          121.4          83.68          161.9          125.2          151.4
    0.3864              -14.17           18.2          76.18          64.71         -2.531          4.494          121.4          83.66          161.8          125.2          151.4
     0.425              -14.18           18.2          76.16           64.7         -2.528          4.487          121.3          83.63          161.7          125.2          151.3
    0.4637              -14.19           18.2          76.13          64.69         -2.524           4.48          121.3           83.6          161.6          125.1          151.3
    0.5023               -14.2          18.21          76.11          64.68          -2.52          4.472          121.3          83.57          161.5          125.1          151.3
     0.541              -14.21          18.21          76.08          64.67         -2.516          4.463          121.3          83.54          161.4          125.1          151.2
    0.5796              -14.22          18.21          76.05          64.66         -2.512          4.454          121.3           83.5          161.2          125.1          151.2
    0.6182              -14.24          18.21          76.02          64.65         -2.507          4.443          121.3          83.46          161.1          125.1          151.1
    0.6569              -14.25          18.22          75.99          64.64         -2.502          4.432          121.3          83.42          161.0          125.0          151.1
    0.6955              -14.27          18.22          75.95          64.62         -2.496           4.42          121.3          83.37          160.8          125.0          151.0
    0.7342              -14.29          18.22          75.91          64.61          -2.49          4.407          121.3          83.32          160.6          125.0          151.0
    0.7728              -14.31          18.23          75.87          64.59         -2.484          4.392          121.3          83.26          160.4          124.9          150.9
    0.8114              -14.33          18.23          75.82          64.57         -2.476          4.376          121.3           83.2          160.2          124.9          150.9
    0.8501              -14.35          18.24          75.76          64.55         -2.468          4.359          121.3          83.13          160.0          124.9          150.8
    0.8887              -14.38          18.24           75.7          64.53         -2.459          4.339          121.3          83.05          159.7          124.8          150.7
    0.9274              -14.41          18.25          75.64           64.5         -2.448          4.317          121.3          82.97          159.4          124.8          150.6
     0.966              -14.44          18.26          75.56          64.47         -2.437          4.293          121.3          82.87          159.1          124.7          150.5
     1.005              -14.47          18.26          75.48          64.44         -2.424          4.266          121.3          82.77          158.7          124.7          150.4
     1.043              -14.52          18.27          75.39           64.4          -2.41          4.235          121.3          82.65          158.3          124.6          150.3
     1.082              -14.56          18.28          75.28          64.36         -2.394            4.2          121.2          82.51          157.9          124.5          150.1
     1.121              -14.62          18.29          75.16          64.31         -2.376          4.161          121.2          82.36          157.3          124.4          149.9
     1.159              -14.68           18.3          75.03          64.26         -2.355          4.116          121.2          82.18          156.7          124.3          149.7
     1.198              -14.74          18.32          74.87           64.2         -2.331          4.064          121.2          81.98          156.1          124.2          149.5
